<svg width="18" height="18" viewBox="0 0 18 18" fill="none" xmlns="http://www.w3.org/2000/svg">
<path fill-rule="evenodd" clip-rule="evenodd" d="M13.6939 17.4466C12.4175 17.8058 11.0553 18 9.64107 18C8.22586 18 6.86282 17.8056 5.5857 17.4459C6.17565 17.507 6.39364 17.1747 6.39364 16.8877C6.39364 16.7628 6.39118 16.5424 6.38788 16.2476C6.38407 15.9065 6.37914 15.4658 6.37563 14.9579C2.73016 15.6437 1.9611 13.4367 1.9611 13.4367C1.36567 12.1261 0.506518 11.7771 0.506518 11.7771C-0.68352 11.0728 0.59661 11.0871 0.59661 11.0871C1.91114 11.1673 2.60321 12.2566 2.60321 12.2566C3.77278 13.9907 5.67045 13.49 6.4174 13.1992C6.53615 12.4659 6.87523 11.9658 7.24952 11.6821C4.33954 11.3957 1.28049 10.4226 1.28049 6.07443C1.28049 4.83538 1.79074 3.82273 2.62942 3.02907C2.49428 2.74191 2.04464 1.58869 2.75719 0.0262788C2.75719 0.0262788 3.85795 -0.278716 6.36088 1.18939C7.40677 0.937554 8.5272 0.812165 9.64188 0.807044C10.7549 0.811989 11.8762 0.937554 12.9229 1.18939C15.4242 -0.278716 16.5225 0.0262788 16.5225 0.0262788C17.2375 1.58869 16.7878 2.74191 16.6527 3.02907C17.493 3.82273 18 4.83538 18 6.07443C18 10.4332 14.936 11.3928 12.017 11.6736C12.4872 12.024 12.9065 12.7161 12.9065 13.7751C12.9065 14.7895 12.8992 15.6725 12.8943 16.2577C12.8919 16.5477 12.8901 16.7645 12.8901 16.8879C12.8901 17.1762 13.1029 17.5092 13.6939 17.4466Z" fill="white"/>
</svg>
