<svg width="20" height="20" viewBox="0 0 20 20" fill="none" xmlns="http://www.w3.org/2000/svg">
<path d="M19.6889 19.9933C18.5008 19.9651 17.341 19.9651 16.1528 19.9933C15.8982 19.9933 15.8417 19.9369 15.8417 19.6834C15.8417 17.599 15.8417 15.4864 15.8417 13.4019C15.8417 12.9231 15.8134 12.4442 15.6719 11.9935C15.2476 10.5288 13.5503 9.99361 12.3339 10.9795C11.6832 11.4865 11.4286 12.1907 11.4286 13.0358C11.4286 15.0075 11.4286 16.9793 11.4286 18.9511C11.4286 19.2046 11.4004 19.4581 11.4286 19.7398C11.4569 19.9651 11.3438 20.0214 11.1458 19.9933C9.92936 19.9933 8.74124 19.9933 7.52483 19.9933C7.29852 19.9933 7.24194 19.9369 7.24194 19.7116C7.27023 17.937 7.27023 16.1624 7.27023 14.3597C7.27023 12.1626 7.27023 9.96544 7.24194 7.7965C7.24194 7.54299 7.29852 7.48665 7.52483 7.48665C8.74124 7.48665 9.92936 7.48665 11.1458 7.48665C11.3721 7.48665 11.4286 7.54299 11.4286 7.76833C11.4286 8.21902 11.4286 8.66971 11.4286 9.2049C11.5135 9.1204 11.5418 9.09223 11.5701 9.06406C12.6733 7.45848 14.2292 7.00779 16.068 7.28947C18.1896 7.62749 19.5475 9.09223 19.8869 11.3457C19.9718 11.8809 20.0001 12.4161 20.0001 12.9513C20.0001 15.2047 20.0001 17.43 20.0001 19.6834C20.0001 19.9088 19.9435 19.9933 19.6889 19.9933Z" fill="white"/>
<path d="M4.15842 13.4643C4.15842 15.4361 4.15842 17.4078 4.15842 19.3796C4.15842 19.6331 4.10184 19.7176 3.84724 19.7176C2.65912 19.6895 1.471 19.7176 0.282885 19.7176C0.0565771 19.7176 0 19.6613 0 19.4359C0 15.4642 0 11.4644 0 7.49268C0 7.2955 0.0565771 7.211 0.282885 7.211C1.49929 7.211 2.7157 7.211 3.93211 7.211C4.1867 7.211 4.21499 7.2955 4.21499 7.52085C4.15842 9.49261 4.15842 11.4644 4.15842 13.4643Z" fill="white"/>
<path d="M4.62455 2.73342C4.34166 3.86014 3.18183 4.50801 1.85227 4.28266C0.437842 4.05732 -0.354237 2.67708 0.154957 1.32501C0.494419 0.479973 1.31479 -0.0270526 2.36146 0.00111552C3.94562 -0.0270526 4.9923 1.24051 4.62455 2.73342Z" fill="white"/>
</svg>
