<svg width="27" height="44" viewBox="0 0 27 44" fill="none" xmlns="http://www.w3.org/2000/svg">
<path d="M19.3431 34.8029C18.0231 36.6029 15.8871 37.5029 12.9351 37.5029C9.98315 37.5029 7.84715 36.6029 6.52715 34.8029C5.20715 32.9789 4.54715 30.1469 4.54715 26.3069V22.7789C4.54715 18.9389 5.20715 16.1189 6.52715 14.3189C7.84715 12.4949 9.98315 11.5829 12.9351 11.5829C15.8871 11.5829 18.0231 12.4949 19.3431 14.3189C20.6631 16.1189 21.3231 18.9389 21.3231 22.7789V26.3069C21.3231 30.1469 20.6631 32.9789 19.3431 34.8029ZM15.9591 13.1309C15.1191 12.8189 14.1111 12.6629 12.9351 12.6629C11.7591 12.6629 10.7511 12.8189 9.91115 13.1309C9.07115 13.4189 8.31515 13.9229 7.64315 14.6429C6.97115 15.3629 6.46715 16.4069 6.13115 17.7749C5.79515 19.1189 5.62715 20.7869 5.62715 22.7789V26.3069C5.62715 28.2989 5.79515 29.9789 6.13115 31.3469C6.46715 32.6909 6.97115 33.7229 7.64315 34.4429C8.31515 35.1629 9.07115 35.6789 9.91115 35.9909C10.7511 36.2789 11.7591 36.4229 12.9351 36.4229C14.1111 36.4229 15.1191 36.2789 15.9591 35.9909C16.7991 35.6789 17.5551 35.1629 18.2271 34.4429C18.8991 33.7229 19.4031 32.6909 19.7391 31.3469C20.0751 29.9789 20.2431 28.2989 20.2431 26.3069V22.7789C20.2431 20.7869 20.0751 19.1189 19.7391 17.7749C19.4031 16.4069 18.8991 15.3629 18.2271 14.6429C17.5551 13.9229 16.7991 13.4189 15.9591 13.1309Z" fill="white"/>
<path d="M7.104 42.56H22.752L12.912 19.376L2.448 44H0.912L12.912 15.68L24.912 44H7.104V42.56Z" fill="#F9004D"/>
<path d="M25.2578 32.4386C25.1938 32.5141 25.1522 32.6035 25.0817 32.6745C25.0779 32.6783 25.0104 32.7535 25.0516 32.7406C25.1541 32.7084 25.248 32.6204 25.3392 32.5689C25.3565 32.5591 25.4667 32.4736 25.4685 32.5205C25.4704 32.5708 25.4619 32.6161 25.4429 32.6636C25.4336 32.6867 25.3836 32.7395 25.4094 32.7307C25.4619 32.7129 25.4975 32.6567 25.5488 32.634" stroke="black" stroke-linecap="round" stroke-linejoin="round"/>
<path d="M25.91 32.5541C25.8886 32.578 25.8702 32.5939 25.8397 32.6074" stroke="white" stroke-linecap="round" stroke-linejoin="round"/>
<path d="M25.9902 32.3676C25.9145 32.3916 25.7896 32.4221 25.7896 32.5097C25.7896 32.5492 25.7795 32.5841 25.7795 32.6251C25.7795 32.6392 25.7736 32.6681 25.7896 32.6765C25.8058 32.6849 25.8374 32.6692 25.8498 32.6829C25.884 32.7207 25.8747 32.617 25.9144 32.6005C25.9341 32.5923 25.9358 32.6275 25.9233 32.6321C25.8913 32.6439 25.8837 32.6592 25.891 32.6074C25.8966 32.5676 25.9344 32.5473 25.9546 32.5141C25.9701 32.4886 25.9752 32.4566 25.988 32.4297C25.9992 32.4061 25.9902 32.431 25.9902 32.4475C25.9902 32.4558 26.0038 32.464 25.9992 32.4712C25.9887 32.4873 25.9601 32.5042 25.9601 32.523C25.9601 32.5422 25.9601 32.5615 25.9601 32.5807" stroke="black" stroke-linecap="round" stroke-linejoin="round"/>
</svg>
