<svg width="151" height="338" viewBox="0 0 151 338" fill="none" xmlns="http://www.w3.org/2000/svg">
<path d="M113.36 215.7C105.293 226.7 92.24 232.2 74.2 232.2C56.16 232.2 43.1067 226.7 35.04 215.7C26.9733 204.553 22.94 187.247 22.94 163.78V142.22C22.94 118.753 26.9733 101.52 35.04 90.52C43.1067 79.3733 56.16 73.8 74.2 73.8C92.24 73.8 105.293 79.3733 113.36 90.52C121.427 101.52 125.46 118.753 125.46 142.22V163.78C125.46 187.247 121.427 204.553 113.36 215.7ZM92.68 83.26C87.5467 81.3533 81.3867 80.4 74.2 80.4C67.0133 80.4 60.8533 81.3533 55.72 83.26C50.5867 85.02 45.9667 88.1 41.86 92.5C37.7533 96.9 34.6733 103.28 32.62 111.64C30.5667 119.853 29.54 130.047 29.54 142.22V163.78C29.54 175.953 30.5667 186.22 32.62 194.58C34.6733 202.793 37.7533 209.1 41.86 213.5C45.9667 217.9 50.5867 221.053 55.72 222.96C60.8533 224.72 67.0133 225.6 74.2 225.6C81.3867 225.6 87.5467 224.72 92.68 222.96C97.8133 221.053 102.433 217.9 106.54 213.5C110.647 209.1 113.727 202.793 115.78 194.58C117.833 186.22 118.86 175.953 118.86 163.78V142.22C118.86 130.047 117.833 119.853 115.78 111.64C113.727 103.28 110.647 96.9 106.54 92.5C102.433 88.1 97.8133 85.02 92.68 83.26Z" fill="white"/>
<path d="M42.624 257.36H136.512L77.472 118.256L14.688 266H5.472L77.472 96.08L149.472 266H42.624V257.36Z" fill="#F9004D"/>
<path d="M17.86 337C17.6093 337 17.4461 337 17.1698 337C17.1551 337 16.8907 337 17.0519 337C17.4537 337 17.8215 337 18.1788 337C18.2466 337 18.6786 337 18.6855 337C18.6929 337 18.6595 337 18.585 337C18.5489 337 18.353 337 18.454 337C18.6596 337 18.799 337 19 337" stroke="black" stroke-linecap="round" stroke-linejoin="round"/>
<path d="M21 337C20.6963 337 20.4347 337 20 337" stroke="white" stroke-linecap="round" stroke-linejoin="round"/>
<path d="M20.9554 337C20.6136 337 20.0502 337 20.0502 337H20.0049C20.0049 337 19.978 337 20.0502 337C20.1236 337 20.2659 337 20.3217 337C20.4759 337 20.4341 337 20.6134 337C20.7024 337 20.7098 337 20.6536 337C20.5091 337 20.4748 337 20.5078 337C20.5332 337 20.7034 337 20.7944 337C20.8646 337 20.8877 337 20.9453 337C20.996 337 20.9554 337 20.9554 337C20.9554 337 21.0166 337 20.9956 337C20.9485 337 20.8196 337 20.8196 337V337" stroke="black" stroke-linecap="round" stroke-linejoin="round"/>
</svg>
