<svg width="20" height="16" viewBox="0 0 20 16" fill="none" xmlns="http://www.w3.org/2000/svg">
<path d="M17.9843 3.99356C17.9843 4.17391 17.9843 4.35427 17.9843 4.50886C17.9843 9.84219 13.8482 16 6.3089 16C3.97906 16 1.83246 15.3301 0 14.1965C0.314136 14.2222 0.65445 14.248 0.968586 14.248C2.87958 14.248 4.65969 13.6039 6.0733 12.5217C4.26702 12.496 2.74869 11.3108 2.25131 9.71337C2.51309 9.7649 2.74869 9.79066 3.03665 9.79066C3.40314 9.79066 3.76963 9.73913 4.10995 9.63607C2.22513 9.27536 0.811518 7.65217 0.811518 5.69404C0.811518 5.66828 0.811518 5.66828 0.811518 5.64251C1.36126 5.95169 1.98953 6.13204 2.67016 6.15781C1.57068 5.43639 0.837696 4.19968 0.837696 2.78261C0.837696 2.03543 1.04712 1.33977 1.38743 0.747182C3.40314 3.19485 6.43979 4.79227 9.84293 4.97262C9.7644 4.68921 9.73822 4.35427 9.73822 4.04509C9.73822 1.80354 11.5707 0 13.8482 0C15.0262 0 16.0995 0.489533 16.8325 1.26248C17.7749 1.08213 18.6387 0.747182 19.4503 0.283414C19.1361 1.23671 18.4817 2.00966 17.644 2.52496C18.4817 2.4219 19.267 2.21578 20 1.88084C19.4764 2.70531 18.7958 3.42673 17.9843 3.99356Z" fill="white"/>
</svg>
